<svg id="SvgjsSvg1001" width="288" height="288" xmlns="http://www.w3.org/2000/svg" version="1.1" xmlns:xlink="http://www.w3.org/1999/xlink" xmlns:svgjs="http://svgjs.com/svgjs"><defs id="SvgjsDefs1002"></defs><g id="SvgjsG1008" transform="matrix(1,0,0,1,0,0)"><svg xmlns="http://www.w3.org/2000/svg" data-name="Layer 1" viewBox="0 0 64 64" width="288" height="288"><rect width="48" height="55.44" x="8" y="4.28" fill="none" stroke="#4593ad" stroke-miterlimit="10" stroke-width="3" rx="3" class="colorStroke222 svgStroke"></rect><path fill="none" stroke="#4593ad" stroke-linecap="round" stroke-linejoin="round" stroke-width="3" d="M11,4.28H53a3,3,0,0,1,3,3v14a0,0,0,0,1,0,0H8a0,0,0,0,1,0,0v-14A3,3,0,0,1,11,4.28Z" class="colorStroke222 svgStroke"></path><circle cx="32" cy="40.48" r="13.38" fill="none" stroke="#4593ad" stroke-miterlimit="10" stroke-width="3" class="colorStroke222 svgStroke"></circle><line x1="28.92" x2="14.63" y1="12.76" y2="12.76" fill="none" stroke="#4593ad" stroke-linecap="round" stroke-linejoin="round" stroke-width="3" class="colorStroke222 svgStroke"></line><circle cx="48.79" cy="12.76" r="2.13" fill="#4593ad" class="color222 svgShape"></circle><circle cx="42.79" cy="12.76" r="2.13" fill="#4593ad" class="color222 svgShape"></circle><circle cx="36.79" cy="12.76" r="2.13" fill="#4593ad" class="color222 svgShape"></circle><line x1="45.38" x2="38.17" y1="40.48" y2="40.48" fill="none" stroke="#4593ad" stroke-linecap="round" stroke-linejoin="round" stroke-width="3" class="colorStroke222 svgStroke"></line></svg></g></svg>